<svg width="28" height="28" viewBox="0 0 28 28" fill="none" xmlns="http://www.w3.org/2000/svg">
<g id="calendar-svgrepo-com (4) 1">
<path id="Vector" d="M16.333 25.6665H11.6663C7.26656 25.6665 5.06668 25.6665 3.69984 24.2996C2.33301 22.9329 2.33301 20.7329 2.33301 16.3332V13.9998C2.33301 9.60006 2.33301 7.40018 3.69984 6.03334C5.06668 4.6665 7.26656 4.6665 11.6663 4.6665H16.333C20.7327 4.6665 22.9327 4.6665 24.2995 6.03334C25.6663 7.40018 25.6663 9.60006 25.6663 13.9998V16.3332C25.6663 20.7329 25.6663 22.9329 24.2995 24.2996C23.5374 25.0617 22.5165 25.3989 20.9997 25.5481" stroke="#108FCF" stroke-width="1.6" stroke-linecap="round"/>
<path id="Vector_2" d="M8.16699 4.6665V2.9165" stroke="#108FCF" stroke-width="1.6" stroke-linecap="round"/>
<path id="Vector_3" d="M19.833 4.6665V2.9165" stroke="#108FCF" stroke-width="1.6" stroke-linecap="round"/>
<path id="Vector_4" d="M25.083 10.5H19.3955H12.5413M2.33301 10.5H6.85384" stroke="#108FCF" stroke-width="1.6" stroke-linecap="round"/>
<path id="Vector_5" d="M21.0003 19.8332C21.0003 20.4775 20.478 20.9998 19.8337 20.9998C19.1893 20.9998 18.667 20.4775 18.667 19.8332C18.667 19.1888 19.1893 18.6665 19.8337 18.6665C20.478 18.6665 21.0003 19.1888 21.0003 19.8332Z" fill="#108FCF"/>
<path id="Vector_6" d="M21.0003 15.1667C21.0003 15.811 20.478 16.3333 19.8337 16.3333C19.1893 16.3333 18.667 15.811 18.667 15.1667C18.667 14.5223 19.1893 14 19.8337 14C20.478 14 21.0003 14.5223 21.0003 15.1667Z" fill="#108FCF"/>
<path id="Vector_7" d="M15.1663 19.8332C15.1663 20.4775 14.644 20.9998 13.9997 20.9998C13.3553 20.9998 12.833 20.4775 12.833 19.8332C12.833 19.1888 13.3553 18.6665 13.9997 18.6665C14.644 18.6665 15.1663 19.1888 15.1663 19.8332Z" fill="#108FCF"/>
<path id="Vector_8" d="M15.1663 15.1667C15.1663 15.811 14.644 16.3333 13.9997 16.3333C13.3553 16.3333 12.833 15.811 12.833 15.1667C12.833 14.5223 13.3553 14 13.9997 14C14.644 14 15.1663 14.5223 15.1663 15.1667Z" fill="#108FCF"/>
<path id="Vector_9" d="M9.33333 19.8332C9.33333 20.4775 8.81099 20.9998 8.16667 20.9998C7.52234 20.9998 7 20.4775 7 19.8332C7 19.1888 7.52234 18.6665 8.16667 18.6665C8.81099 18.6665 9.33333 19.1888 9.33333 19.8332Z" fill="#108FCF"/>
<path id="Vector_10" d="M9.33333 15.1667C9.33333 15.811 8.81099 16.3333 8.16667 16.3333C7.52234 16.3333 7 15.811 7 15.1667C7 14.5223 7.52234 14 8.16667 14C8.81099 14 9.33333 14.5223 9.33333 15.1667Z" fill="#108FCF"/>
</g>
</svg>
