<svg width="20" height="20" viewBox="0 0 20 20" fill="none" xmlns="http://www.w3.org/2000/svg">
<g id="call-dropped-rounded-svgrepo-com 1">
<path id="Vector" d="M3.33847 6.61107C3.27818 8.20118 3.68062 10.9016 6.38943 13.6104C7.04293 14.2639 7.69595 14.7832 8.33301 15.1941M4.61452 4.11452C5.77531 2.95373 7.62732 3.1097 8.36434 4.4303L8.90518 5.39941C9.39326 6.27398 9.19734 7.42126 8.42859 8.19C8.42859 8.19 7.49624 9.1225 9.18676 10.8131C10.8768 12.5031 11.8098 11.5712 11.8098 11.5712C12.5786 10.8025 13.7258 10.6066 14.6004 11.0947L15.5695 11.6355C16.8902 12.3725 17.0461 14.2245 15.8853 15.3853C15.1878 16.0828 14.3333 16.6256 13.3888 16.6613C12.7104 16.6871 11.8299 16.6286 10.833 16.3427" stroke="#797979" stroke-width="1.2" stroke-linecap="round"/>
</g>
</svg>
