<svg width="20" height="20" viewBox="0 0 20 20" fill="none" xmlns="http://www.w3.org/2000/svg">
<g id="letter-svgrepo-com 1">
<path id="Vector" d="M18.3337 10.0002C18.3337 13.1428 18.3337 14.7142 17.3573 15.6905C16.3811 16.6668 14.8097 16.6668 11.667 16.6668H8.33366C5.19096 16.6668 3.61962 16.6668 2.6433 15.6905C1.66699 14.7142 1.66699 13.1428 1.66699 10.0002C1.66699 6.85746 1.66699 5.28612 2.6433 4.3098C3.61962 3.3335 5.19096 3.3335 8.33366 3.3335H11.667C14.8097 3.3335 16.3811 3.3335 17.3573 4.3098C17.9017 4.85412 18.1425 5.5834 18.2491 6.66683" stroke="#797979" stroke-width="1.2" stroke-linecap="round"/>
<path id="Vector_2" d="M15 6.6665L13.2009 8.16574C11.6704 9.44117 10.9051 10.0789 10 10.0789C9.45892 10.0789 8.96783 9.851 8.33333 9.39517M5 6.6665L5.75 7.2915L6.5 7.9165" stroke="#797979" stroke-width="1.2" stroke-linecap="round"/>
</g>
</svg>
