<svg width="20" height="20" viewBox="0 0 20 20" fill="none" xmlns="http://www.w3.org/2000/svg">
<g id="user-svgrepo-com 1">
<path id="Vector" d="M10.0003 8.33317C11.8413 8.33317 13.3337 6.84079 13.3337 4.99984C13.3337 3.15889 11.8413 1.6665 10.0003 1.6665C8.15938 1.6665 6.66699 3.15889 6.66699 4.99984C6.66699 6.84079 8.15938 8.33317 10.0003 8.33317Z" stroke="#797979" stroke-width="1.2"/>
<path id="Vector_2" d="M16.6643 15.0002C16.6663 14.8633 16.6663 14.7243 16.6663 14.5835C16.6663 12.5124 13.6816 10.8335 9.99967 10.8335C6.31777 10.8335 3.33301 12.5124 3.33301 14.5835C3.33301 16.6546 3.33301 18.3335 9.99967 18.3335C11.8588 18.3335 13.1995 18.2029 14.1663 17.9697" stroke="#797979" stroke-width="1.2" stroke-linecap="round"/>
</g>
</svg>
